<svg width="527" height="218" viewBox="0 0 527 218" xmlns="http://www.w3.org/2000/svg"><title>Group 2</title><g fill="none" fill-rule="evenodd"><path d="M217 109.5c0 5.8-4 10.4-8.9 10.4s-8.9-4.7-8.9-10.4c0-5.8 4-10.4 8.9-10.4 5-.1 8.9 4.6 8.9 10.4z" fill="#FFC107"/><path d="M105.6 56.3c-7.4 0-13.7.9-18.8 2.7-5.1 1.8-10 3.9-14.9 6.2-2.3-2.2-5.6-4.2-9.8-6.1-4.2-1.9-10.2-2.8-17.9-2.8-5.5 0-10.4.6-14.6 1.8-4.2 1.2-7.9 2.4-11 3.6L13.7 59H.1v100.7h27V84.4c2.2-1.1 4.6-2.1 7.1-3 2.5-.9 5.9-1.3 10-1.3 4.7 0 8.2 1.8 10.4 5.3 2.3 3.5 3.4 9.3 3.4 17.4v57h27V97.4c0-2.1-.2-4.2-.5-6.4s-.6-3.6-.7-4.1c2.6-2.1 5.4-3.6 8.3-4.7 2.9-1.1 6.3-1.7 10.3-1.7 5.4 0 9 2.1 10.9 6.3 1.9 4.2 2.9 9.6 2.9 16.2v56.8H143V97.6c0-12.4-3.1-22.4-9.2-29.9-6-7.6-15.4-11.4-28.2-11.4zm140.7 15.6c-4.7-4.7-10.4-8.5-17-11.1-6.6-2.7-13.7-4-21.3-4-7.6 0-14.6 1.3-21.1 4-6.5 2.7-12.1 6.4-16.9 11.1-4.8 4.7-8.6 10.3-11.3 16.7-2.8 6.4-4.1 13.4-4.1 21 0 7.4 1.4 14.4 4.1 20.8 2.7 6.5 6.5 12 11.3 16.7 4.8 4.7 10.5 8.4 16.9 11 6.5 2.7 13.5 4 21.1 4 7.6 0 14.7-1.3 21.3-4 6.6-2.7 12.3-6.4 17-11 4.7-4.7 8.5-10.2 11.3-16.7 2.8-6.5 4.1-13.4 4.1-20.8 0-7.6-1.4-14.6-4.1-21-2.8-6.4-6.5-11.9-11.3-16.7zM231.9 121c-1.3 3.5-3.1 6.5-5.5 9-2.3 2.5-5.1 4.4-8.2 5.9-3.1 1.4-6.5 2.2-10.2 2.2-3.6 0-6.9-.7-10.1-2.2-3.2-1.4-5.9-3.4-8.3-5.9-2.3-2.5-4.2-5.5-5.5-9-1.3-3.5-2-7.3-2-11.5 0-4.1.7-7.9 2-11.5 1.3-3.5 3.1-6.6 5.5-9.2 2.3-2.6 5.1-4.6 8.3-6.1 3.2-1.4 6.5-2.2 10.1-2.2 3.7 0 7.1.8 10.2 2.3 3.1 1.5 5.8 3.5 8.2 6.1 2.3 2.5 4.2 5.6 5.5 9.1 1.3 3.5 2 7.3 2 11.5s-.7 8-2 11.5zm290.4-32.4c-2.8-6.4-6.5-12-11.3-16.7-4.7-4.7-10.4-8.5-17-11.1-6.6-2.7-13.7-4-21.3-4-7.6 0-14.6 1.3-21.1 4-6.5 2.7-12.1 6.4-16.9 11.1-4.8 4.7-8.6 10.3-11.4 16.7-2.8 6.4-4.1 13.4-4.1 21 0 7.4 1.4 14.4 4.1 20.8 2.8 6.5 6.5 12 11.4 16.7 4.8 4.7 10.5 8.4 16.9 11 6.5 2.7 13.5 4 21.1 4 7.6 0 14.7-1.3 21.3-4 6.6-2.7 12.3-6.4 17-11 4.7-4.7 8.5-10.2 11.3-16.7 2.8-6.5 4.1-13.4 4.1-20.8 0-7.6-1.4-14.6-4.1-21zM496.6 121c-1.3 3.5-3.1 6.5-5.5 9-2.3 2.5-5.1 4.4-8.1 5.9-3.1 1.4-6.5 2.2-10.2 2.2-3.6 0-6.9-.7-10.1-2.2-3.2-1.4-5.9-3.4-8.3-5.9-2.3-2.5-4.2-5.5-5.5-9-1.3-3.5-2-7.3-2-11.5 0-4.1.7-7.9 2-11.5 1.3-3.5 3.1-6.6 5.5-9.2 2.3-2.6 5.1-4.6 8.3-6.1 3.2-1.4 6.5-2.2 10.1-2.2 3.7 0 7.1.8 10.2 2.3 3.1 1.5 5.8 3.5 8.1 6.1 2.3 2.5 4.2 5.6 5.5 9.1 1.3 3.5 2 7.3 2 11.5-.1 4.2-.7 8-2 11.5zM376 159.7h27V61.9h-27v97.8zm-21.7-86.2l4.1-14.4h-80.3l-7.2 23.3h44.8l-48.1 62.7-3.3 14.7h90l6.8-23.3h-54.5l47.7-63z" fill="#428BCA"/><path d="M483.6 115.3c-8-5.7-16.2-11.4-24.6-16.9-.5 2.5-.9 5-1.4 7.5-83.5-7.2-157.4-8.9-240.6 0 1.1 4.5-8.5 9.4-7.4 13.9 81.3-8.7 164-7.3 245.5-.3-.5 2.5-.9 5-1.4 7.5 9.8-4.1 19.8-7.9 29.9-11.7z" fill="#000" opacity=".5"/><path d="M483.6 109.7c-8-8.4-16.2-16.8-24.6-25-.5 3.7-.9 7.3-1.4 11-83.5-10.6-168.1-9.3-251.3 3.9 1.1 6.7 2.1 13.4 3.2 20.1 81.3-12.9 164-14.2 245.5-3.8-.5 3.7-.9 7.3-1.4 11 9.9-5.9 19.9-11.6 30-17.2z" fill="#FFC107"/></g></svg>